Patient4_TMGait_0pt3_01_left_25_GRF.mot
version=1
nRows=71
nColumns=19
inDegrees=no
endheader
time	F1x	F1y	F1z	M1x	M1y	M1z	F2x	F2y	F2z	M2x	M2y	M2z	EC1x	EC1y	EC1z	EC2x	EC2y	EC2z
46.88	-5.3508	-0.90126	1.9079	0.10962	-1.4293	-2.9085	-18.1742	756.1393	-48.4692	259.796	58.561	745.1322	-0.0592	0.0182	-0.0073	-0.0462	0.0165	0.9585
46.8997	-3.6669	-0.47262	1.3821	0.036309	-1.0701	-1.8251	-17.963	770.6137	-46.3944	265.4947	56.2804	756.2209	-0.0592	0.0182	-0.0073	-0.0462	0.0165	0.9585
46.9194	-2.2412	-0.085166	0.94156	-0.038814	-0.78547	-0.87056	-17.8914	790.4829	-44.4134	273.0769	54.0595	772.0595	-0.0592	0.0182	-0.0073	-0.0462	0.0165	0.9585
46.9391	-1.1561	0.23304	0.60835	-0.10727	-0.58119	-0.11326	-18.0656	814.9599	-42.7443	282.1896	52.132	792.0383	-0.0592	0.0182	-0.0073	-0.0462	0.0165	0.9585
46.9589	-0.40985	0.47217	0.37901	-0.16359	-0.44931	0.43478	-18.4933	841.9598	-41.5406	292.0405	50.6402	814.2751	-0.0592	0.0182	-0.0073	-0.0462	0.0165	0.9585
46.9786	0.042537	0.62885	0.23717	-0.20302	-0.3754	0.79066	-19.0403	868.4135	-40.8405	301.5198	49.5721	835.8947	-0.0592	0.0182	-0.0073	-0.0462	0.0165	0.9585
46.9983	0.26381	0.69817	0.16164	-0.21952	-0.34331	0.97812	-19.4965	890.8159	-40.574	309.3935	48.7906	853.5838	-0.0592	0.0182	-0.0073	-0.0462	0.0165	0.9585
47.018	0.31941	0.66775	0.13368	-0.20471	-0.34164	1.0083	-19.6514	905.8579	-40.6004	314.5205	48.0956	864.2172	-0.0592	0.0182	-0.0073	-0.0462	0.0165	0.9585
47.0377	0.26797	0.51605	0.13781	-0.14618	-0.36218	0.87669	-19.3078	911.1046	-40.7391	316.0867	47.2626	865.4957	-0.0592	0.0182	-0.0073	-0.0462	0.0165	0.9585
47.0574	0.15506	0.20966	0.16151	-0.027449	-0.40078	0.56235	-18.3092	905.5018	-40.7965	313.7735	46.08	856.4318	-0.0592	0.0182	-0.0073	-0.0462	0.0165	0.9585
47.0771	0.015882	-0.28941	0.19439	0.16945	-0.44985	0.031133	-16.5631	889.5124	-40.6123	307.7935	44.3948	837.4792	-0.0592	0.0182	-0.0073	-0.0462	0.0165	0.9585
47.0969	-0.12315	-1.0187	0.22579	0.45828	-0.49684	-0.75077	-14.0399	864.9327	-40.1066	298.8163	42.149	810.348	-0.0592	0.0182	-0.0073	-0.0462	0.0165	0.9585
47.1166	-0.23687	-1.9967	0.23881	0.84237	-0.51976	-1.7918	-10.7646	834.4844	-39.2825	287.8202	39.3784	777.6124	-0.0592	0.0182	-0.0073	-0.0462	0.0165	0.9585
47.1363	-0.29926	-3.1906	0.2085	1.3055	-0.48527	-3.0547	-6.814	801.3172	-38.2185	275.9164	36.2043	742.2457	-0.0592	0.0182	-0.0073	-0.0462	0.0165	0.9585
47.156	-0.27909	-4.4827	0.10516	1.7983	-0.35004	-4.4183	-2.32	768.5651	-37.0609	264.1952	32.8202	707.2061	-0.0592	0.0182	-0.0073	-0.0462	0.0165	0.9585
47.1757	-0.13525	-5.6253	-0.10194	2.2208	-0.064316	-5.6265	2.5446	739.0199	-35.9894	253.6173	29.4577	675.1144	-0.0592	0.0182	-0.0073	-0.0462	0.0165	0.9585
47.1954	0.18578	-6.1938	-0.44223	2.4057	0.42459	-6.2498	7.5995	714.8851	-35.1745	244.9357	26.3355	648.0204	-0.0592	0.0182	-0.0073	-0.0462	0.0165	0.9585
47.2151	0.74038	-5.5436	-0.93372	2.0999	1.1579	-5.6329	12.6684	697.5563	-34.7523	238.626	23.6337	627.21	-0.0592	0.0182	-0.0073	-0.0462	0.0165	0.9585
47.2349	1.575	-2.7926	-1.5676	0.9576	2.1442	-2.8633	17.5742	687.4216	-34.8058	234.8181	21.4833	613.0456	-0.0592	0.0182	-0.0073	-0.0462	0.0165	0.9585
47.2546	2.7066	3.1525	-2.2929	-1.4513	3.336	3.1887	22.1404	683.7771	-35.3512	233.2677	19.9549	604.9166	-0.0592	0.0182	-0.0073	-0.0462	0.0165	0.9585
47.2743	4.0915	13.4765	-2.9919	-5.5903	4.591	13.7483	26.1862	684.9265	-36.3332	233.391	19.0577	601.3448	-0.0592	0.0182	-0.0073	-0.0462	0.0165	0.9585
47.294	5.5839	29.2337	-3.4539	-11.8631	5.6272	29.9183	29.5207	688.4248	-37.619	234.3492	18.7364	600.2172	-0.0592	0.0182	-0.0073	-0.0462	0.0165	0.9585
47.3137	6.8588	50.9957	-3.3593	-20.4739	5.9793	52.3128	31.9573	691.4307	-39.0131	235.1695	18.8827	599.0982	-0.0592	0.0182	-0.0073	-0.0462	0.0165	0.9585
47.3334	7.3281	78.4053	-2.3325	-31.2512	5.0193	80.5964	33.3464	691.1275	-40.2898	234.8904	19.3561	595.5906	-0.0592	0.0182	-0.0073	-0.0462	0.0165	0.9585
47.3531	6.4666	109.7618	-0.058884	-43.4915	2.2142	113.0524	33.6331	685.1707	-41.2481	232.7119	20.0055	587.6996	-0.0592	0.0182	-0.0073	-0.0462	0.0165	0.9585
47.3729	4.3526	142.3968	3.4512	-56.1336	-2.3821	146.9204	32.9102	672.1693	-41.7549	228.1587	20.6827	574.2241	-0.0592	0.0182	-0.0073	-0.0462	0.0165	0.9585
47.3926	1.3761	174.3435	7.7001	-68.4278	-8.0774	180.1229	31.4311	651.9865	-41.7609	221.1795	21.2493	554.9998	-0.0592	0.0182	-0.0073	-0.0462	0.0165	0.9585
47.4123	-2.1963	205.4612	12.0752	-80.3521	-14.1167	212.4885	29.5462	625.5937	-41.2813	212.0987	21.5857	530.7866	-0.0592	0.0182	-0.0073	-0.0462	0.0165	0.9585
47.432	-6.1573	236.5357	16.1013	-92.2433	-19.9223	244.8043	27.5781	594.4917	-40.3412	201.4233	21.5944	502.8014	-0.0592	0.0182	-0.0073	-0.0462	0.0165	0.9585
47.4517	-10.2946	268.2369	19.5137	-104.378	-25.1326	277.6855	25.7222	560.1264	-38.9628	189.6462	21.2235	472.2396	-0.0592	0.0182	-0.0073	-0.0462	0.0165	0.9585
47.4714	-14.3771	300.854	22.2982	-116.8614	-29.6343	311.3169	24.0184	523.6272	-37.2011	177.1563	20.4993	440.0534	-0.0592	0.0182	-0.0073	-0.0462	0.0165	0.9585
47.4911	-18.1119	334.2903	24.6374	-129.6355	-33.4925	345.466	22.3906	485.8585	-35.1421	164.2556	19.5122	406.9821	-0.0592	0.0182	-0.0073	-0.0462	0.0165	0.9585
47.5109	-21.1797	368.028	26.7872	-142.4815	-36.8408	379.4621	20.7217	447.6098	-32.8689	151.2241	18.3698	373.7023	-0.0592	0.0182	-0.0073	-0.0462	0.0165	0.9585
47.5306	-23.3424	401.2567	28.9156	-155.0817	-39.7602	412.3702	18.932	409.7587	-30.4408	138.3732	17.154	340.9611	-0.0592	0.0182	-0.0073	-0.0462	0.0165	0.9585
47.5503	-24.4364	433.034	31.0151	-167.0833	-42.1922	443.1854	17.0295	373.3137	-27.9063	126.0549	15.9091	309.603	-0.0592	0.0182	-0.0073	-0.0462	0.0165	0.9585
47.57	-24.3786	462.2376	32.9442	-178.0738	-43.9796	470.8116	15.0976	339.3352	-25.3255	114.6302	14.658	280.4971	-0.0592	0.0182	-0.0073	-0.0462	0.0165	0.9585
47.5897	-23.2274	487.5738	34.501	-187.5758	-44.9567	494.0735	13.2559	308.7726	-22.7797	104.4132	13.4215	254.4037	-0.0592	0.0182	-0.0073	-0.0462	0.0165	0.9585
47.6094	-21.176	507.8677	35.491	-195.1508	-45.0165	511.9898	11.6067	282.2483	-20.357	95.5993	12.2276	231.807	-0.0592	0.0182	-0.0073	-0.0462	0.0165	0.9585
47.6291	-18.5074	522.4839	35.7793	-200.5556	-44.1419	524.1497	10.1925	259.8235	-18.1254	88.1881	11.1077	212.7304	-0.0592	0.0182	-0.0073	-0.0462	0.0165	0.9585
47.6489	-15.5333	531.5985	35.3716	-203.8367	-42.4602	530.9191	9.0245	240.8418	-16.118	81.932	10.0756	196.6088	-0.0592	0.0182	-0.0073	-0.0462	0.0165	0.9585
47.6686	-12.5258	536.2713	34.4613	-205.3649	-40.2632	533.4655	8.1154	224.0255	-14.3374	76.3749	9.1211	182.3682	-0.0592	0.0182	-0.0073	-0.0462	0.0165	0.9585
47.6883	-9.6797	538.3299	33.3865	-205.8043	-37.9541	533.6286	7.4486	207.8701	-12.7661	70.9908	8.2275	168.7717	-0.0592	0.0182	-0.0073	-0.0462	0.0165	0.9585
47.708	-7.1086	540.0577	32.5254	-206.0038	-35.9442	533.6052	6.9705	191.0823	-11.3653	65.3349	7.3746	154.7718	-0.0592	0.0182	-0.0073	-0.0462	0.0165	0.9585
47.7277	-4.8523	543.7781	32.2033	-206.8434	-34.5605	535.5551	6.6092	172.876	-10.0723	59.145	6.5324	139.7344	-0.0592	0.0182	-0.0073	-0.0462	0.0165	0.9585
47.7474	-2.9183	551.4687	32.6476	-209.0824	-34.0166	541.268	6.286	153.0718	-8.8249	52.373	5.677	123.5127	-0.0592	0.0182	-0.0073	-0.0462	0.0165	0.9585
47.7671	-1.3218	564.5359	33.9686	-213.2648	-34.4123	551.9794	5.9241	132.0272	-7.591	45.1572	4.8088	106.3865	-0.0592	0.0182	-0.0073	-0.0462	0.0165	0.9585
47.7869	-0.10012	583.7997	36.1653	-219.7131	-35.7414	568.3843	5.4573	110.4652	-6.3712	37.7594	3.9528	88.9233	-0.0592	0.0182	-0.0073	-0.0462	0.0165	0.9585
47.8066	0.70086	609.5438	39.1352	-228.5457	-37.9064	590.6971	4.8337	89.2676	-5.1877	30.4906	3.149	71.817	-0.0592	0.0182	-0.0073	-0.0462	0.0165	0.9585
47.8263	1.0612	641.4724	42.7087	-239.6593	-40.7474	618.6144	4.032	69.2969	-4.0721	23.6515	2.437	55.7469	-0.0592	0.0182	-0.0073	-0.0462	0.0165	0.9585
47.846	1.0036	678.6326	46.6819	-252.7069	-44.0656	651.2459	3.0847	51.2916	-3.0553	17.4956	1.8423	41.2934	-0.0592	0.0182	-0.0073	-0.0462	0.0165	0.9585
47.8657	0.58014	719.4242	50.8295	-267.1038	-47.6414	687.1208	2.0816	35.8012	-2.1647	12.2089	1.3692	28.8891	-0.0592	0.0182	-0.0073	-0.0462	0.0165	0.9585
47.8854	-0.13174	761.6614	54.9257	-282.0527	-51.2485	724.2316	1.152	23.1597	-1.4264	7.9016	1.0053	18.7935	-0.0592	0.0182	-0.0073	-0.0462	0.0165	0.9585
47.9051	-1.0404	802.7686	58.7522	-296.6164	-54.6618	760.1995	0.4186	13.4837	-0.86229	4.6094	0.73202	11.0873	-0.0592	0.0182	-0.0073	-0.0462	0.0165	0.9585
47.9249	-2.0668	840.0987	62.0961	-309.8388	-57.6631	792.564	-0.05908	6.6647	-0.47348	2.2916	0.53187	5.67	-0.0592	0.0182	-0.0073	-0.0462	0.0165	0.9585
47.9446	-3.1247	871.2745	64.7523	-320.8714	-60.0331	819.0916	-0.32468	2.3494	-0.23241	0.82629	0.39655	2.2524	-0.0592	0.0182	-0.0073	-0.0462	0.0165	0.9585
47.9643	-4.081	894.4233	66.5641	-329.0548	-61.5737	837.9951	-0.4416	0.0047437	-0.10319	0.030963	0.31438	0.40729	-0.0592	0.0182	-0.0073	-0.0462	0.0165	0.9585
47.984	-4.7811	908.2707	67.4405	-333.9464	-62.1397	848.0426	-0.46442	-0.93865	-0.049866	-0.2885	0.27079	-0.31916	-0.0592	0.0182	-0.0073	-0.0462	0.0165	0.9585
48.0037	-5.0645	912.1508	67.3729	-335.3154	-61.6631	848.5822	-0.43533	-0.99722	-0.041818	-0.30791	0.25113	-0.34157	-0.0592	0.0182	-0.0073	-0.0462	0.0165	0.9585
48.0234	-4.7876	906.0527	66.4442	-333.1531	-60.17	839.5913	-0.38719	-0.59554	-0.061111	-0.17118	0.24912	-0.00095856	-0.0592	0.0182	-0.0073	-0.0462	0.0165	0.9585
48.0431	-3.8528	890.6885	64.8049	-327.6998	-57.77	821.7409	-0.34171	-0.058948	-0.097682	0.010919	0.26357	0.43616	-0.0592	0.0182	-0.0073	-0.0462	0.0165	0.9585
48.0629	-2.2092	867.5214	62.6479	-319.4614	-54.629	796.4131	-0.30872	0.36734	-0.1438	0.15365	0.29195	0.75637	-0.0592	0.0182	-0.0073	-0.0462	0.0165	0.9585
48.0826	0.16699	838.7032	60.1893	-309.1948	-50.9427	765.6215	-0.29276	0.49938	-0.19168	0.19192	0.32712	0.79106	-0.0592	0.0182	-0.0073	-0.0462	0.0165	0.9585
48.1023	3.2672	806.8839	57.6411	-297.8447	-46.9107	731.8277	-0.2924	0.2058	-0.23356	0.077377	0.35927	0.4141	-0.0592	0.0182	-0.0073	-0.0462	0.0165	0.9585
48.122	7.0512	774.9446	55.1825	-286.4509	-42.711	697.6866	-0.3021	-0.598	-0.2618	-0.22226	0.37869	-0.46049	-0.0592	0.0182	-0.0073	-0.0462	0.0165	0.9585
48.1417	11.448	745.7373	52.9568	-276.0537	-38.4958	665.8061	-0.30953	-1.9442	-0.26735	-0.71975	0.3738	-1.8675	-0.0592	0.0182	-0.0073	-0.0462	0.0165	0.9585
48.1614	16.3404	721.8143	51.081	-267.5935	-34.407	638.4969	-0.29719	-3.7817	-0.23745	-1.3965	0.32614	-3.7541	-0.0592	0.0182	-0.0073	-0.0462	0.0165	0.9585
48.1811	21.6069	705.1525	49.6392	-261.8031	-30.559	617.5218	-0.24573	-5.9227	-0.15814	-2.1833	0.21248	-5.9311	-0.0592	0.0182	-0.0073	-0.0462	0.0165	0.9585
48.2009	27.1382	696.8359	48.6883	-259.0847	-27.0408	603.8426	-0.13432	-7.9753	-0.01841	-2.9352	0.011907	-8.0104	-0.0592	0.0182	-0.0073	-0.0462	0.0165	0.9585
48.2206	32.7991	696.7403	48.2645	-259.3833	-23.9383	597.3819	0.05887	-9.2684	0.18656	-3.4038	-0.28425	-9.3255	-0.0592	0.0182	-0.0073	-0.0462	0.0165	0.9585
48.2403	38.4052	703.3521	48.3769	-262.1129	-21.3386	596.9013	0.35324	-8.789	0.447	-3.2131	-0.66653	-8.8671	-0.0592	0.0182	-0.0073	-0.0462	0.0165	0.9585
48.26	43.7155	713.8547	48.9861	-266.1919	-19.3117	600.106	0.75602	-5.136	0.73245	-1.8434	-1.0975	-5.2304	-0.0592	0.0182	-0.0073	-0.0462	0.0165	0.9585
